<svg width="500" height="100" version="1.1" viewBox="0 0 132.29 26.458" xmlns="http://www.w3.org/2000/svg">
 <g fill="#222" fill-opacity=".93">
  <g stroke-width=".29415" aria-label="PHOTOGRAPHY">
   <path d="m29.106 25.989v-1.4875h1.3518c0.51556 0 1.0139-0.35522 1.0139-0.90285s-0.49829-0.90285-1.0139-0.90285h-1.5516c-0.11101 0-0.20228 0.04934-0.20228 0.11347v3.1797c0 0.06414 0.09127 0.11347 0.20228 0.11347 0.11101 0 0.19981-0.04934 0.19981-0.11347zm0-3.0687h1.3518c0.34782 0 0.61177 0.34535 0.61177 0.67837s-0.26395 0.67837-0.61177 0.67837h-1.3518z"/>
   <path d="m36.547 25.992v-1.5097h2.0228v1.5097c0 0.06167 0.08881 0.11101 0.19981 0.11101 0.11101 0 0.20228-0.04934 0.20228-0.11101v-3.2438c0-0.06167-0.09127-0.11101-0.20228-0.11101-0.11101 0-0.19981 0.04934-0.19981 0.11101v1.5097h-2.0228v-1.5097c0-0.06167-0.0888-0.11101-0.19981-0.11101-0.11101 0-0.20228 0.04934-0.20228 0.11101v3.2438c0 0.06167 0.09127 0.11101 0.20228 0.11101 0.11101 0 0.19981-0.04934 0.19981-0.11101z"/>
   <path d="m45.305 22.637c-1.0237 0-1.6602 0.75731-1.6602 1.7317 0 0.97685 0.63644 1.7342 1.6602 1.7342 1.0237 0 1.6602-0.75731 1.6602-1.7342 0-0.97439-0.63644-1.7317-1.6602-1.7317zm0 0.22448c0.82885 0 1.2581 0.76471 1.2581 1.5072 0 0.74497-0.42922 1.5097-1.2581 1.5097-0.82884 0-1.2581-0.76471-1.2581-1.5097 0-0.74251 0.42922-1.5072 1.2581-1.5072z"/>
   <path d="m52.709 25.962v-3.0712h1.0484c0.11101 0 0.19981-0.04934 0.19981-0.11347 0-0.06167-0.08881-0.11101-0.19981-0.11101h-2.4989c-0.11101 0-0.19981 0.04934-0.19981 0.11101 0 0.06414 0.08881 0.11347 0.19981 0.11347h1.0484v3.0712c0 0.06167 0.0888 0.11101 0.20228 0.11101 0.11101 0 0.19981-0.04934 0.19981-0.11101z"/>
   <path d="m59.711 22.637c-1.0237 0-1.6602 0.75731-1.6602 1.7317 0 0.97685 0.63643 1.7342 1.6602 1.7342s1.6602-0.75731 1.6602-1.7342c0-0.97439-0.63644-1.7317-1.6602-1.7317zm0 0.22448c0.82885 0 1.2581 0.76471 1.2581 1.5072 0 0.74497-0.42922 1.5097-1.2581 1.5097-0.82884 0-1.2581-0.76471-1.2581-1.5097 0-0.74251 0.42922-1.5072 1.2581-1.5072z"/>
   <path d="m67.648 26.103c0.37989 0 0.75978-0.11841 1.0509-0.32315 0.20474-0.14554 0.49336-0.48596 0.49336-0.74991v-0.56243c0-0.08387-0.13567-0.11347-0.19981-0.11347h-1.3493c-0.11101 0-0.20228 0.0518-0.20228 0.11347 0 0.06167 0.09127 0.11347 0.20228 0.11347h1.1495v0.44896c0 0.26148-0.20228 0.46376-0.40702 0.6093-0.21461 0.15294-0.48349 0.23928-0.74251 0.23928-0.87078 0.0025-1.3222-0.6907-1.3222-1.5023 0-0.80911 0.48349-1.5146 1.3469-1.5146 0.50816 0 1.041 0.31328 1.1175 0.85105 0.0074 0.0592 0.09621 0.10361 0.20228 0.10361 0.06414 0 0.19981-0.0296 0.19981-0.11101 0-0.0296-0.0099-0.07894-0.01727-0.10854-0.15541-0.6463-0.88805-0.95959-1.5097-0.95959-1.041 0-1.7391 0.68577-1.7391 1.7292 0 1.0632 0.6611 1.7366 1.7268 1.7366z"/>
   <path d="m74.127 26.103c0.11101 0 0.20228-0.0518 0.20228-0.11347v-1.4875h0.88558c0.34535 0 0.49583 0.35029 0.6537 0.70551 0.15048 0.33548 0.30342 0.68084 0.6685 0.86585 0.037 0.01974 0.08634 0.02714 0.13321 0.02714 0.05427 0 0.10854-0.01233 0.14801-0.037 0.037-0.0222 0.0518-0.04687 0.0518-0.074 0-0.03207-0.02467-0.06167-0.0666-0.08387-0.27135-0.13814-0.40949-0.44896-0.54516-0.74991-0.11347-0.25655-0.22448-0.50076-0.42182-0.66604 0.45142-0.0666 0.85598-0.40949 0.85598-0.89052 0-0.55503-0.5205-0.90285-1.0385-0.90285h-1.527c-0.11101 0-0.19981 0.0518-0.19981 0.11347v3.1797c0 0.06167 0.08881 0.11347 0.19981 0.11347zm1.527-1.8254h-1.3247v-1.3567h1.3247c0.35522 0 0.63644 0.33302 0.63644 0.67837s-0.28122 0.67837-0.63644 0.67837z"/>
   <path d="m84.622 25.994c0-0.01727-0.0074-0.02713-0.0148-0.0444l-1.4011-3.2266c-0.02713-0.0592-0.11841-0.08634-0.21214-0.08634-0.06167 0-0.20474 0.0148-0.23188 0.08141l-1.3987 3.2882c-0.0025 0.0099-0.0049 0.01233-0.0049 0.0222 0 0.04687 0.07647 0.074 0.15048 0.074 0.06167 0 0.12087-0.01974 0.13814-0.05674l0.46376-1.0903h1.6108l0.46129 1.0607c0.02467 0.0592 0.11841 0.08634 0.21214 0.08634 0.11347 0 0.22695-0.03947 0.22695-0.10854zm-0.99659-1.263h-1.4209l0.70304-1.6528z"/>
   <path d="m89.636 25.989v-1.4875h1.3518c0.51556 0 1.0139-0.35522 1.0139-0.90285s-0.49829-0.90285-1.0139-0.90285h-1.5516c-0.11101 0-0.20228 0.04934-0.20228 0.11347v3.1797c0 0.06414 0.09127 0.11347 0.20228 0.11347 0.11101 0 0.19981-0.04934 0.19981-0.11347zm0-3.0687h1.3518c0.34782 0 0.61177 0.34535 0.61177 0.67837s-0.26395 0.67837-0.61177 0.67837h-1.3518z"/>
   <path d="m97.077 25.992v-1.5097h2.0228v1.5097c0 0.06167 0.08881 0.11101 0.19981 0.11101 0.11101 0 0.20228-0.04934 0.20228-0.11101v-3.2438c0-0.06167-0.09127-0.11101-0.20228-0.11101-0.11101 0-0.19981 0.04934-0.19981 0.11101v1.5097h-2.0228v-1.5097c0-0.06167-0.0888-0.11101-0.19981-0.11101-0.11101 0-0.20228 0.04934-0.20228 0.11101v3.2438c0 0.06167 0.09127 0.11101 0.20228 0.11101 0.11101 0 0.19981-0.04934 0.19981-0.11101z"/>
   <path d="m105.6 26.103c0.111 0 0.20227-0.04934 0.20227-0.11101v-1.5344l1.2753-1.7144c7e-3 -0.0099 0.01-0.01974 0.01-0.02714 0-0.0518-0.0789-0.07894-0.15541-0.07894-0.0641 0-0.12581 0.01727-0.15048 0.0518l-1.1125 1.4949-1.1224-1.4751c-0.037-0.04934-0.12087-0.07154-0.20228-0.07154-0.11594 0-0.23188 0.04194-0.23188 0.10607 0 0.0148 5e-3 0.0296 0.0173 0.0444l1.2704 1.6676v1.5368c0 0.06167 0.0888 0.11101 0.19982 0.11101z"/>
  </g>
  <g transform="scale(.99039 1.0097)" stroke-width=".38902" aria-label="Vaida Čekavičiūtė">
   <path d="m7.1386 8.7899q-0.04596-0.19533-0.091921-0.3447 0.05745-0.33321 0.12639-0.64344 0.068941-0.32172 0.1149-0.65494 0.1149-0.49407 0.27576-0.79282 0.17235-0.29874 0.36768-0.37917l0.73537-0.31023q0.12639-0.04596 0.35619-0.1149 0.12639 0 0.18384 0.1149 0.05745 0.1149 0.05745 0.33321 0 0.080431-0.05745 0.4596-0.05745 0.37917-0.16086 1.0686-0.02298 0.16086-0.04596 0.33321-0.01149 0.17235-0.04596 0.3447 0 0.1149-0.080431 0.27576-0.080431 0.14937-0.20682 0.35619 0.05745 0.2298-0.25278 1.1145-0.29874 0.88474-0.94219 2.3899-0.54003 1.2524-0.95368 2.1946-0.41364 0.94219-0.72388 1.5512-0.16086 0.32172-0.36768 0.7009-0.20682 0.36768-0.42513 0.76984 0.10341 0.24129 0.19533 0.43662-0.01149 0.16086-0.04596 0.2298-0.16086 0.18384-0.40215 0.47109-0.24129 0.28725-0.56301 0.64344-0.21831 0.10341-0.47109 0.2298-0.17235 0.2298-0.28725 0.40215-0.21831 0.12639-0.41364 0.18384-0.18384 0.06894-0.3447 0.06894-0.28725 0-0.54003-0.27576-0.24129-0.27576-0.24129-0.56301 0-0.19533 0.26427-0.48258t0.29874-0.37917l-0.034471-0.1149-0.1149-0.14937q-0.04596-0.28725-0.12639-0.51705-0.080431-0.24129-0.19533-0.4596-0.20682-0.3447-0.36768-0.83878-0.16086-0.50556-0.29874-1.149-0.05745-0.29874-0.091921-0.47109-0.02298-0.18384-0.02298-0.24129-0.04596-0.080431-0.10341-0.2298-0.05745-0.14937-0.12639-0.3447-0.05745-0.37917-0.14937-0.95368-0.080431-0.5745-0.17235-1.3443 0-0.09192-0.03447-0.21831-0.02298-0.12639-0.080431-0.31023-0.068941-0.17235-0.091921-0.29874-0.02298-0.12639-0.02298-0.2298 0.01149-0.33321 0.01149-0.65494-0.068941-0.25278-0.04596-0.29874l0.091921-0.44811q-0.1149-0.16086-0.19533-0.39066-0.068941-0.2298-0.068941-0.54003 0-0.1149 0.03447-0.21831 0.03447-0.10341 0.080431-0.19533-0.05745-0.18384-0.091921-0.36768-0.03447-0.19533-0.03447-0.41364-0.1149-0.17235-0.17235-0.33321-0.04596-0.17235-0.01149-0.29874l0.068941-0.4596q-0.04596-0.17235-0.080431-0.28725 0.12639-0.68941 0.21831-1.103 0.091921-0.41364 0.13788-0.52854 0.17235-0.40215 0.48258-0.64344 0.32172-0.25278 0.79282-0.3447 0.16086-0.1149 0.27576-0.18384 0.12639-0.068941 0.2298-0.068941 0.12639 0 0.2298 0.12639 0.1149 0.1149 0.18384 0.3447 0.05745 0.19533 0.068941 0.37917 0.02298 0.18384 0.01149 0.33321-0.04596 0.42513-0.091921 0.97666-0.04596 0.55152-0.068941 1.2294-0.02298 0.080431-0.10341 0.26427-0.080431 0.17235-0.080431 0.27576 0 0.1149 0.080431 0.36768 0.080431 0.25278 0.080431 0.36768 0 0.068941-0.02298 0.25278-0.02298 0.18384-0.068941 0.7009 0.04596 0.26427 0.1149 0.55152 0 0.12639-0.03447 0.41364t-0.03447 0.42513q0 0.080431 0.02298 0.12639 0.02298 0.03447 0.091921 0.31023 0.01149 0.25278 0.04596 0.586 0.04596 0.32172 0.10341 0.76984 0.05745 0.39066 0.13788 0.97666 0.091921 0.586 0.17235 1.3558l0.01149 0.37917q0 0.08043 0.04596 0.19533 0.04596 0.10341 0.13788 0.21831 0.068941 0.31023 0.14937 0.66642 0.080431 0.35619 0.16086 0.73536 0.02298 0.12639 0.080431 0.19533 0.05745 0.06894 0.12639 0.06894 0.25278-0.25278 0.40215-0.51705 0.10341-0.12639 0.26427-0.4596 0.17235-0.3447 0.40215-0.91921 0.05745-0.14937 0.17235-0.35619 0.1149-0.20682 0.26427-0.47109 0.14937-0.2298 0.41364-0.83878t0.64344-1.6086q0.31023-0.82729 0.51705-1.4018 0.21831-0.5745 0.31023-0.88474z"/>
   <path d="m9.0575 16.052 1.0456-0.6894q0.05745-0.05745 0.13788-0.14937 0.08043-0.10341 0.18384-0.28725 0.08043-0.14937 0.20682-0.25278 0.13788-0.10341 0.31023-0.18384 0.09192-0.1149 0.26427-0.28725t0.43662-0.40215q0.12639-0.06894 0.32172-0.19533 0.19533-0.13788 0.42513-0.35619 1.0456-0.98815 1.8269-1.4822 0.79282-0.49407 1.3328-0.49407 0.29874 0 0.43662 0.12639 0.14937 0.12639 0.14937 0.35619 0 0.24129-0.09192 0.42513-0.08043 0.18384-0.26427 0.31023-0.28725 0.20682-0.62046 0.4596-0.18384 0.24129-0.44811 0.51705-0.26427 0.26427-0.62046 0.52854-0.1149 0.14937-0.19533 0.26427-0.05745 0.05745-0.21831 0.20682-0.16086 0.14937-0.42513 0.3447-0.1149 0.25278-0.50556 0.65494-0.37917 0.40215-1.0226 0.96517-0.08043 0.08043-0.28725 0.36768-0.20682 0.28725-0.54003 0.75835l0.08043 0.10341q0.25278-0.08043 0.52854-0.27576 0.27576-0.19533 0.60897-0.51705 0.39066-0.35619 0.63196-0.5745 0.25278-0.2298 0.35619-0.29874 0.08043-0.04596 0.16086-0.09192 0.08043-0.04596 0.18384-0.1149 0.52854-0.63196 0.98815-0.9307 0.4596-0.31023 0.85027-0.31023 0.24129 0 0.36768 0.19533 0.12639 0.18384 0.14937 0.56301-0.02298 0.5745-0.02298 1.103-0.01149 0.36768 0.19533 0.66642 0.21831 0.28725 0.56301 0.28725 0.10341 0 0.19533-0.05745 0.10341-0.05745 0.20682-0.14937 0.08043-0.10341 0.14937-0.19533 0.08043-0.09192 0.16086-0.18384 0.04596-0.02298 0.12639-0.08043 0.09192-0.05745 0.17235-0.13788 0.16086 0.3447 0.26427 0.60898 0.1149 0.25278 0.17235 0.44811-0.26427 0.24129-0.52854 0.50556-0.25278 0.25278-0.54003 0.48258-0.3447 0.26427-0.66642 0.40215-0.32172 0.12639-0.64344 0.12639-0.74686 0-1.149-0.42513-0.40215-0.42513-0.47109-1.2869 0-0.10341-0.03447-0.20682-0.02298-0.1149-0.1149-0.2298-0.05745 0.05745-0.12639 0.12639-0.06894 0.05745-0.16086 0.16086-0.14937 0.1149-0.37917 0.28725-0.21831 0.17235-0.51705 0.41364-0.40215 0.41364-0.67792 0.67792-0.27576 0.26427-0.39066 0.37917-0.2298 0.19533-0.54003 0.39066-0.29874 0.19533-0.67792 0.40215-0.24129 0.12639-0.41364 0.19533-0.17235 0.08043-0.25278 0.08043-0.55152 0-0.8158-0.26427-0.26427-0.27576-0.26427-0.83878 0-0.31023 0.13788-0.586 0.12639-0.28725 0.39066-0.55152 0.02298-0.14937 0.02298-0.24129 0-0.05745-0.03447-0.1149-0.02298-0.06894-0.068941-0.14937-0.068941-0.16086-0.14937-0.35619-0.091921-0.20682-0.19533-0.43662 0.04596-0.04596 0.13788-0.17235 0.080431-0.13788 0.19533-0.33321z"/>
   <path d="m17.526 16.557 0.06894-0.08043 0.03447-0.1149q0.31023-0.42513 1.0916-1.103 0.78133-0.6894 1.0801-1.1145 0.1149-0.18384 0.26427-0.26427t0.29874-0.08043q0.40215 0 0.67792 0.20682 0.27576 0.19533 0.36768 0.59748 0.08043 0.35619 0.14937 0.72388 0.06894 0.35619 0.1149 0.72388 0.08043 0.2298 0.19533 0.7009 0.1149 0.4596 0.17235 0.52854 0.05745 0.1149 0.17235 0.17235 0.1149 0.04596 0.28725 0.04596 0.20682 0 0.42513-0.06894 0.21831-0.08043 0.44811-0.26427 0.17235-0.14937 0.35619-0.29874 0.19533-0.16086 0.37917-0.31023l0.4596 1.0571q-0.18384 0.18384-0.49407 0.42513-0.29874 0.2298-0.72388 0.54003-0.47109 0.3447-0.80431 0.51705-0.33321 0.16086-0.50556 0.16086-1.0456 0-1.3558-0.24129-0.31023-0.24129-0.6894-1.3443-0.04596-0.09192-0.13788-0.21831-0.09192-0.12639-0.20682-0.29874-0.13788-0.26427-0.24129-0.39066-0.10341-0.13788-0.17235-0.13788-0.18384 0-0.49407 0.25278-0.31023 0.24129-0.75835 0.73537-0.05745-0.14937-0.13788-0.35619-0.09192-0.20682-0.18384-0.48258-0.02298-0.06894-0.05745-0.12639-0.03447-0.05745-0.08043-0.09192zm4.8029-9.0657q0.28725 0 0.41364 0.1149 0.13788 0.1149 0.13788 0.33321-0.06894 0.32172-0.1149 0.54003-0.1149 0.41364-0.20682 0.67792-0.08043 0.26427-0.12639 0.37917-0.10341 0.25278-0.28725 0.44811-0.17235 0.18384-0.42513 0.33321-0.26427 0.18384-0.44811 0.26427-0.17235 0.06894-0.24129 0.05745-0.19533-0.02298-0.37917-0.03447-0.17235-0.02298-0.3447-0.02298-0.14937-0.08043-0.24129-0.31023-0.08043-0.2298-0.08043-0.62046 0-0.3447 0.41364-0.86176 0.42513-0.52854 0.74686-0.56301 0.19533-0.24129 0.4596-0.55152 0.1149-0.080431 0.29874-0.12639 0.18384-0.05745 0.42513-0.05745z"/>
   <path d="m24.098 16.557 0.06894-0.08043 0.03447-0.1149q0.20682-0.25278 0.35619-0.39066 0.14937-0.14937 0.2298-0.2298 0.05745-0.05745 0.25278-0.14937 0.19533-0.09192 0.52854-0.2298l0.14937-0.09192q0.08043-0.12639 0.28725-0.36768 0.20682-0.24129 0.49407-0.55152 0.05745-0.06894 0.17235-0.14937 0.1149-0.08043 0.24129-0.20682 0.27576-0.26427 0.55152-0.54003 0.27576-0.28725 0.51705-0.56301 0.10341-0.10341 0.42513-0.36768 0.32172-0.27576 0.87325-0.75835 0.08043-0.05745 0.28725-0.16086 0.20682-0.1149 0.54003-0.26427 0.14937-0.06894 0.21831-0.21831 0.08043-0.16086 0.08043-0.40215 0.09192-0.14937 0.17235-0.35619 0.09192-0.21831 0.17235-0.50556 0.1149-0.35619 0.17235-0.5745 0.06894-0.2298 0.10341-0.31023 0.19533-0.51705 0.52854-1.2065 0.33321-0.7009 0.79282-1.5971 0.2298-0.47109 0.54003-1.0456 0.19533-0.28725 0.43662-0.42513 0.24129-0.14937 0.50556-0.14937 0.20682 0 0.29874 0.16086 0.10341 0.16086 0.10341 0.47109 0 0.49407-0.06894 0.94219-0.06894 0.44811-0.25278 0.83878-0.03447 0.080431-0.05745 0.24129-0.02298 0.16086-0.04596 0.39066-0.01149 0.16086-0.09192 0.31023-0.06894 0.14937-0.18384 0.27576 0 0.080431-0.02298 0.19533-0.02298 0.10341-0.04596 0.25278l-0.16086 0.20682q-0.02298 0.068941-0.02298 0.17235 0 0.091921 0 0.19533 0 0.068941-0.08043 0.27576-0.08043 0.19533-0.24129 0.56301-0.18384 0.39066-0.29874 0.62046-0.10341 0.2298-0.1149 0.28725-0.04596 0.05745-0.12639 0.18384-0.06894 0.12639-0.17235 0.28725l0.03447 0.25278-0.73537 2.6427q0 0.43662 0.01149 0.74686 0.01149 0.31023 0.06894 0.49407 0.05745 0.19533 0.18384 0.48258 0.13788 0.27576 0.3447 0.59748 0.12639 0.21831 0.29874 0.32172 0.17235 0.09192 0.36768 0.09192 0.21831 0 0.43662-0.1149 0.2298-0.12639 0.4596-0.37917 0.13788 0.29874 0.25278 0.56301 0.12639 0.26427 0.20682 0.49407-0.05745 0.03447-0.25278 0.24129-0.18384 0.19533-0.49407 0.56301-0.18384 0.21831-0.4596 0.32172-0.26427 0.09192-0.65494 0.09192-0.86176 0-1.4018-0.44811t-0.75835-1.3443q-0.04596-0.18384-0.08043-0.32172t-0.06894-0.25278q-0.08043-0.21831-0.27576-0.47109-0.08043 0.1149-0.12639 0.17235-0.13788 0.09192-0.31023 0.26427-0.16086 0.17235-0.33321 0.43662-0.03447 0.1149-0.12639 0.28725-0.09192 0.16086-0.25278 0.39066-0.36768 0.42513-0.74686 0.86176-0.37917 0.42513-0.75835 0.83878-0.51705 0.5745-0.95368 0.83878-0.43662 0.27576-0.75835 0.27576-0.5745 0-0.85027-0.27576-0.27576-0.26427-0.27576-0.83878 0-0.26427 0.19533-0.73537 0.19533-0.48258 0.19533-0.71239l-0.06894-0.18384zm5.7795-3.2862q0-0.05745-0.04596-0.17235-0.17235 0.17235-0.42513 0.40215-0.25278 0.2298-0.59748 0.50556-0.08043 0.18384-0.36768 0.586-0.28725 0.39066-0.80431 0.97666-0.14937 0.17235-0.40215 0.59748-0.25278 0.41364-0.62046 1.0226-0.12639 0.24129-0.26427 0.58599 0 0.06894 0.09192 0.14937 0.3447-0.10341 0.83878-0.59748 0.50556-0.50556 1.195-1.3903 0.71238-0.94219 1.0571-1.5971 0.3447-0.66642 0.3447-1.0686z"/>
   <path d="m34.071 16.052 1.0456-0.6894q0.05745-0.05745 0.13788-0.14937 0.08043-0.10341 0.18384-0.28725 0.08043-0.14937 0.20682-0.25278 0.13788-0.10341 0.31023-0.18384 0.09192-0.1149 0.26427-0.28725t0.43662-0.40215q0.12639-0.06894 0.32172-0.19533 0.19533-0.13788 0.42513-0.35619 1.0456-0.98815 1.8269-1.4822 0.79282-0.49407 1.3328-0.49407 0.29874 0 0.43662 0.12639 0.14937 0.12639 0.14937 0.35619 0 0.24129-0.09192 0.42513-0.08043 0.18384-0.26427 0.31023-0.28725 0.20682-0.62046 0.4596-0.18384 0.24129-0.44811 0.51705-0.26427 0.26427-0.62046 0.52854-0.1149 0.14937-0.19533 0.26427-0.05745 0.05745-0.21831 0.20682-0.16086 0.14937-0.42513 0.3447-0.1149 0.25278-0.50556 0.65494-0.37917 0.40215-1.0226 0.96517-0.08043 0.08043-0.28725 0.36768-0.20682 0.28725-0.54003 0.75835l0.08043 0.10341q0.25278-0.08043 0.52854-0.27576 0.27576-0.19533 0.60897-0.51705 0.39066-0.35619 0.63196-0.5745 0.25278-0.2298 0.35619-0.29874 0.08043-0.04596 0.16086-0.09192 0.08043-0.04596 0.18384-0.1149 0.52854-0.63196 0.98815-0.9307 0.4596-0.31023 0.85027-0.31023 0.24129 0 0.36768 0.19533 0.12639 0.18384 0.14937 0.56301-0.02298 0.5745-0.02298 1.103-0.01149 0.36768 0.19533 0.66642 0.21831 0.28725 0.56301 0.28725 0.10341 0 0.19533-0.05745 0.10341-0.05745 0.20682-0.14937 0.08043-0.10341 0.14937-0.19533 0.08043-0.09192 0.16086-0.18384 0.04596-0.02298 0.12639-0.08043 0.09192-0.05745 0.17235-0.13788 0.16086 0.3447 0.26427 0.60898 0.1149 0.25278 0.17235 0.44811-0.26427 0.24129-0.52854 0.50556-0.25278 0.25278-0.54003 0.48258-0.3447 0.26427-0.66642 0.40215-0.32172 0.12639-0.64344 0.12639-0.74686 0-1.149-0.42513-0.40215-0.42513-0.47109-1.2869 0-0.10341-0.03447-0.20682-0.02298-0.1149-0.1149-0.2298-0.05745 0.05745-0.12639 0.12639-0.06894 0.05745-0.16086 0.16086-0.14937 0.1149-0.37917 0.28725-0.21831 0.17235-0.51705 0.41364-0.40215 0.41364-0.67792 0.67792t-0.39066 0.37917q-0.2298 0.19533-0.54003 0.39066-0.29874 0.19533-0.67792 0.40215-0.24129 0.12639-0.41364 0.19533-0.17235 0.08043-0.25278 0.08043-0.55152 0-0.8158-0.26427-0.26427-0.27576-0.26427-0.83878 0-0.31023 0.13788-0.586 0.12639-0.28725 0.39066-0.55152 0.02298-0.14937 0.02298-0.24129 0-0.05745-0.03447-0.1149-0.02298-0.06894-0.06894-0.14937-0.06894-0.16086-0.14937-0.35619-0.09192-0.20682-0.19533-0.43662 0.04596-0.04596 0.13788-0.17235 0.08043-0.13788 0.19533-0.33321z"/>
   <path d="m60.073 17.614q-0.3447 0.26427-0.86176 0.60898-0.50556 0.3447-1.195 0.75835-0.62046 0.35619-1.103 0.62046-0.47109 0.25278-0.79282 0.37917-0.47109 0.21831-0.99964 0.31023-0.52854 0.10341-1.0801 0.10341-0.17235 0-0.39066-0.05745-0.20682-0.04596-0.44811-0.1149-0.29874-0.08043-0.50556-0.13788-0.20682-0.05745-0.3447-0.06894l-0.13788-0.13788-0.33321-0.04596q-0.21831-0.01149-0.52854-0.21831-0.29874-0.20682-0.65494-0.5745-0.3447-0.3447-0.56302-0.65494-0.20682-0.31023-0.29874-0.56301l-0.31023-0.98815q-0.16086-0.50556-0.24129-0.8158-0.08043-0.31023-0.06894-0.40215l0.12639-0.51705q-0.09192-0.26427-0.14937-0.43662-0.04596-0.17235-0.04596-0.26427 0-0.09192 0.05745-0.56301 0.05745-0.47109 0.16086-1.3099 0.08043-0.16086 0.17235-0.39066 0.09192-0.2298 0.17235-0.51705l-0.03447-0.25278q0-0.09192 0.03447-0.20682 0.04596-0.12639 0.1149-0.27576 0.26427-0.56302 0.52854-1.1375 0.26427-0.5745 0.52854-1.1145 0.2298-0.41364 0.586-0.85027 0.36768-0.43662 0.83878-0.90772 0.10341-0.1149 0.25278-0.29874t0.35619-0.40215q0.19533-0.1149 0.47109-0.3447 0.28725-0.24129 0.67792-0.60897 0.1149-0.04596 0.27576-0.12639 0.16086-0.080431 0.39066-0.19533 0.05745-0.03447 0.13788-0.1149 0.09192-0.080431 0.20682-0.17235 0.12639-0.1149 0.91921-0.3447 0.79282-0.2298 1.0341-0.2298 0.52854 0 0.89623 0.080431 0.36768 0.068941 0.586 0.2298l0.36768 0.068941q0.4596 0.10341 0.67792 0.7009 0.21831 0.59748 0.21831 1.7235 0 0.52854-0.01149 0.85027-0.01149 0.31023-0.03447 0.42513-0.06894 0.3447-0.16086 0.87325-0.08043 0.51705-0.21831 1.2065-0.01149 0.18384-0.16086 0.60898-0.13788 0.41364-0.36768 1.0341-0.24129 0.67792-0.41364 1.0341-0.17235 0.3447-0.28725 0.37917-0.4596 0.1149-0.98815 0.25278-0.25278 0-0.35619-0.03447-0.10341-0.04596-0.10341-0.13788 0-0.08043 0.03447-0.25278 0.04596-0.17235 0.04596-0.24129-0.03447-0.43662-0.06894-0.88474 0-0.16086 0.09192-0.63196 0.09192-0.47109 0.27576-1.2065 0.19533-0.80431 0.3447-1.2639 0.14937-0.47109 0.24129-0.58599 0.33321-0.31023 0.48258-0.58599 0.16086-0.28725 0.16086-0.51705 0-0.32172-0.16086-0.56301-0.14937-0.24129-0.4596-0.36769-0.29874-0.06894-0.60898-0.12639-0.29874-0.068941-0.59748-0.16086-0.24129 0.091921-0.43662 0.13788-0.18384 0.04596-0.32172 0.080431-0.76984 0.12639-1.4822 0.71239-0.7009 0.58599-1.3443 1.6201-0.52854 0.89623-0.85027 1.8039-0.32172 0.89623-0.43662 1.8039-0.04596 0.27576-0.1149 0.6894-0.06894 0.40215-0.19533 0.95368 0.10341 0.3447 0.18384 0.63196l-0.1149 1.0456q0 0.05745 0.10341 0.24129 0.10341 0.17235 0.32172 0.51705 0.12639 0.19533 0.2298 0.4596t0.16086 0.59748q0.02298 0.08043 0.08043 0.17235 0.06894 0.09192 0.14937 0.14937 0.17235 0.14937 0.33321 0.26427 0.49407 0.52854 1.0456 0.80431 0.56302 0.26427 1.195 0.26427 0.05745 0 0.42513-0.05745 0.37917-0.05745 1.0341-0.18384 0.1149-0.08043 0.29874-0.16086 0.19533-0.08043 0.4596-0.17235 0.2298-0.2298 0.4596-0.32172 0.2298-0.10341 0.42513-0.10341 0.05745-0.08043 0.13788-0.19533 0.09192-0.1149 0.2298-0.25278 0.3447-0.13788 0.63196-0.35619 0.28725-0.2298 0.55152-0.52854 0.4596 0.99964 0.4596 1.0571zm-0.35619-16.695q-0.10341 0.13788-0.21831 0.27576-0.10341 0.12639-0.19533 0.25278-0.09192 0.10341-0.12639 0.26427-0.03447 0.14937-0.1149 0.25278-0.09192 0.12639-0.24129 0.21831-0.14937 0.080431-0.21831 0.17235-0.06894 0.091921-0.18384 0.17235-0.10341 0.068941-0.17235 0.14937l-0.24129-0.01149q-0.01149 0.068941 0.04596 0.33321-0.06894 0.068941-0.09192 0.17235-0.01149 0.091921-0.08043 0.14937-0.05745 0.05745-0.17235 0.080431-0.1149 0.02298-0.16086 0.05745-0.06894 0.04596-0.16086 0.068941-0.09192 0.01149-0.16086 0.02298-0.06894 0.01149-0.13788 0.04596-0.06894 0.03447-0.13788 0.03447-0.06894 0-0.13788-0.02298-0.05745-0.02298-0.12639-0.05745-0.10341-0.057451-0.21831-0.17235-0.10341-0.12639-0.19533-0.27576-0.04596-0.10341-0.1149-0.20682-0.068941-0.10341-0.13788-0.20682-0.068941-0.10341-0.16086-0.20682-0.09192-0.10341-0.17235-0.19533-0.091921-0.10341-0.19533-0.21831-0.10341-0.1149-0.20682-0.21831-0.080431-0.080431-0.18384-0.17235-0.09192-0.091921-0.18384-0.17235-0.10341-0.068941-0.18384-0.13788-0.08043-0.080431-0.1149-0.13788-0.03447-0.068941-0.05745-0.12639t-0.02298-0.1149q0-0.05745 0.04596-0.12639 0.04596-0.080431 0.1149-0.14937 0.08043-0.080431 0.31023-0.21831 0.20682-0.03447 0.31023 0.02298 0.04596 0.03447 0.09192 0.13788 0.05745 0.10341 0.12639 0.14937 0.08043 0.04596 0.17235 0.10341 0.09192 0.05745 0.18384 0.1149 0.10341 0.05745 0.20682 0.12639 0.1149 0.068941 0.21831 0.12639 0.1149 0.068941 0.17235 0.080431t0.17235 0.080431q0.04596 0.02298 0.21831 0.068941 0.17235 0.04596 0.21831 0.080431 0.08043 0.05745 0.13788 0.080431 0.05745 0.02298 0.16086-0.03447l0.20682-0.14937q0.10341-0.068941 0.17235-0.1149 0.06894-0.05745 0.16086-0.12639 0.10341-0.091921 0.21831-0.18384 0.1149-0.10341 0.20682-0.19533 0.09192-0.080431 0.18384-0.17235 0.09192-0.10341 0.16086-0.19533 0.09192-0.10341 0.13788-0.19533 0.04596-0.091921 0.1149-0.14937 0.09192-0.068941 0.3447-0.14937 0.08043 0 0.14937 0.03447 0.06894 0.02298 0.1149 0.080431 0.18384 0.13788 0.26427 0.2298 0.08043 0.091921 0.08043 0.17235 0 0.06894-0.05745 0.18384-0.04596 0.10341-0.13788 0.21831z"/>
   <path d="m59.602 16.557q0.13788-0.24129 0.35619-0.48258 0.21831-0.25278 0.55152-0.51705 0.03447-0.2298 0.06894-0.44811 0.03447-0.2298 0.04596-0.4596 0.03447-0.16086 0.10341-0.37917 0.08043-0.21831 0.17235-0.47109 0.10341-0.25278 0.27576-0.63196 0.18384-0.37917 0.47109-0.85027 0.24129-0.26427 0.50556-0.5745 0.26427-0.32172 0.52854-0.64344 0.12639-0.10341 0.27576-0.19533 0.14937-0.09192 0.29874-0.20682 0.13788-0.04596 0.31023-0.08043t0.37917-0.03447q0.28725 0 0.4596 0.05745 0.18384 0.05745 0.29874 0.19533 0.08043 0.09192 0.14937 0.27576 0.08043 0.18384 0.14937 0.44811 0.03447 0.2298 0.08043 0.50556 0-0.06894-0.04596 0.05745-0.03447 0.12639-0.1149 0.40215l-0.10341 0.36768q-0.16086 0.55152-0.72388 1.2754-0.56301 0.72388-1.5167 1.6546-0.08043 0.08043-0.13788 0.20682-0.05745 0.1149-0.05745 0.25278 0 0.24129 0.08043 0.42513 0.09192 0.18384 0.25278 0.27576 0.09192 0.06894 0.28725 0.13788 0.20682 0.06894 0.48258 0.12639 0.44811-0.03447 0.8158-0.14937t0.65494-0.27576q0.05745-0.03447 0.18384-0.09192 0.12639-0.06894 0.25278-0.17235 0.14937 0.33321 0.26427 0.59748t0.18384 0.4596q-0.65494 0.64344-1.195 0.97666-0.52854 0.32172-0.97666 0.32172-0.18384 0.1149-0.42513 0.17235-0.2298 0.04596-0.55152 0.04596-0.42513 0-0.75834-0.12639-0.32172-0.12639-0.54004-0.36768-0.1149-0.1149-0.2298-0.33321-0.1149-0.2298-0.24129-0.54003-0.10341-0.25278-0.19533-0.36768-0.09192-0.12639-0.20682-0.12639-0.09192 0-0.20682 0.09192-0.1149 0.08043-0.25278 0.25278-0.04596-0.17235-0.16086-0.42513t-0.29874-0.63196zm3.6768-3.7343q-0.25278 0-0.67792 0.66643-0.42513 0.65494-0.42513 0.96517 0 0.06894 0.02298 0.10341 0.03447 0.02298 0.12639 0.02298 0.12639 0 0.20682-0.12639 0.08043-0.13788 0.14937-0.25278 0.12639-0.1149 0.24129-0.24129 0.12639-0.13788 0.24129-0.26427 0.13788-0.16086 0.20682-0.32172 0.06894-0.16086 0.06894-0.32172 0-0.10341-0.04596-0.16086-0.03447-0.06894-0.1149-0.06894z"/>
   <path d="m65.382 16.557q0.04596-0.03447 0.09192-0.09192 0.04596-0.06894 0.10341-0.20682 0.06894-0.1149 0.19533-0.24129 0.12639-0.13788 0.29874-0.29874 0.32172-0.26427 0.5745-0.65494 0.26427-0.40215 0.51705-0.91921 0.33321-0.72388 0.60897-1.2294t0.50556-0.76984q0.06894-0.26427 0.27576-0.83878 0.20682-0.5745 0.55152-1.4937 0.33321-0.87325 0.56301-1.4133 0.2298-0.55152 0.3447-0.75835 0.04596-0.080431 0.1149-0.20682 0.08043-0.12639 0.12639-0.31023 0.16086-0.54003 0.37917-0.99964 0.21831-0.47109 0.44811-0.88474 0.05745-0.10341 0.13788-0.16086 0.09192-0.05745 0.18384-0.05745 0.4596 0 0.67792 0.35619 0.2298 0.35619 0.2298 1.0456 0 0.76984-0.49407 2.1372-0.49407 1.3558-1.5167 3.2977-0.20682 0.43662-0.44811 1.0686t-0.48258 1.4478q-0.19533 0.63196-0.37917 1.2869-0.18384 0.65494-0.37917 1.2869-0.18384 0.60898-0.27576 0.96517-0.09192 0.3447-0.09192 0.4596 0 0.08043 0.02298 0.1149 0.03447 0.03447 0.09192 0.03447 0.1149 0 0.19533-0.06894 0.09192-0.06894 0.13788-0.19533 0.2298-0.33321 0.44811-0.74686 0.2298-0.42513 0.4596-0.9307l0.03447-0.33321q0.08043-0.75835 0.3447-1.0571 0.26427-0.29874 0.98815-0.47109 0.09192-0.03447 0.4596-0.62046 0.37917-0.58599 0.99964-1.735 0.3447-0.60898 0.5745-0.90772 0.2298-0.31023 0.3447-0.31023 0.26427 0 0.37917 0.17235t0.1149 0.51705q0 0.88474-0.98815 2.2291-0.98815 1.3443-0.98815 1.7695 0 0.29874 0.52854 0.91921 0.52854 0.60898 0.87325 0.60898 0.1149 0 0.25278-0.06894 0.14937-0.08043 0.3447-0.24129 0.14937-0.1149 0.28725-0.24129 0.14937-0.13788 0.32172-0.25278l0.4596 1.0571q-0.29874 0.26427-0.5745 0.52854-0.26427 0.26427-0.56302 0.51705-0.33321 0.32172-0.66642 0.48258-0.33321 0.14937-0.66642 0.14937-0.3447 0-1.172-0.7009-0.8158-0.71239-0.87325-0.71239-0.42513 0.39066-0.74686 0.78133-0.20682 0.25278-0.41364 0.49407-0.19533 0.2298-0.40215 0.48258-0.05745 0.08043-0.18384 0.19533-0.12639 0.1149-0.28725 0.26427-0.16086 0.2298-0.36768 0.43662-0.19533 0.21831-0.49407 0.21831-0.4596 0-0.6894-0.26427t-0.2298-0.80431q0-0.55152 0.09192-1.172 0.10341-0.62046 0.31023-1.2984 0.08043-0.32172 0.12639-0.56301 0.04596-0.25278 0.04596-0.43662l-0.08043-0.1149q-0.14937 0.18384-0.37917 0.43662t-0.54003 0.62046q-0.04596 0.03447-0.10341 0.12639-0.04596 0.08043-0.2298 0.33321-0.05745-0.14937-0.13788-0.35619-0.09192-0.20682-0.18384-0.48258-0.02298-0.06894-0.05745-0.12639-0.03447-0.05745-0.08043-0.09192z"/>
   <path d="m74.815 16.052 1.0456-0.6894q0.05745-0.05745 0.13788-0.14937 0.08043-0.10341 0.18384-0.28725 0.08043-0.14937 0.20682-0.25278 0.13788-0.10341 0.31023-0.18384 0.09192-0.1149 0.26427-0.28725 0.17235-0.17235 0.43662-0.40215 0.12639-0.06894 0.32172-0.19533 0.19533-0.13788 0.42513-0.35619 1.0456-0.98815 1.8269-1.4822 0.79282-0.49407 1.3328-0.49407 0.29874 0 0.43662 0.12639 0.14937 0.12639 0.14937 0.35619 0 0.24129-0.09192 0.42513-0.08043 0.18384-0.26427 0.31023-0.28725 0.20682-0.62046 0.4596-0.18384 0.24129-0.44811 0.51705-0.26427 0.26427-0.62046 0.52854-0.1149 0.14937-0.19533 0.26427-0.05745 0.05745-0.21831 0.20682-0.16086 0.14937-0.42513 0.3447-0.1149 0.25278-0.50556 0.65494-0.37917 0.40215-1.0226 0.96517-0.08043 0.08043-0.28725 0.36768-0.20682 0.28725-0.54004 0.75835l0.08043 0.10341q0.25278-0.08043 0.52854-0.27576 0.27576-0.19533 0.60898-0.51705 0.39066-0.35619 0.63196-0.5745 0.25278-0.2298 0.35619-0.29874 0.08043-0.04596 0.16086-0.09192 0.08043-0.04596 0.18384-0.1149 0.52854-0.63196 0.98815-0.9307 0.4596-0.31023 0.85027-0.31023 0.24129 0 0.36768 0.19533 0.12639 0.18384 0.14937 0.56301-0.02298 0.5745-0.02298 1.103-0.01149 0.36768 0.19533 0.66642 0.21831 0.28725 0.56302 0.28725 0.10341 0 0.19533-0.05745 0.10341-0.05745 0.20682-0.14937 0.08043-0.10341 0.14937-0.19533 0.08043-0.09192 0.16086-0.18384 0.04596-0.02298 0.12639-0.08043 0.09192-0.05745 0.17235-0.13788 0.16086 0.3447 0.26427 0.60898 0.1149 0.25278 0.17235 0.44811-0.26427 0.24129-0.52854 0.50556-0.25278 0.25278-0.54004 0.48258-0.3447 0.26427-0.66642 0.40215-0.32172 0.12639-0.64344 0.12639-0.74686 0-1.149-0.42513-0.40215-0.42513-0.47109-1.2869 0-0.10341-0.03447-0.20682-0.02298-0.1149-0.1149-0.2298-0.05745 0.05745-0.12639 0.12639-0.06894 0.05745-0.16086 0.16086-0.14937 0.1149-0.37917 0.28725-0.21831 0.17235-0.51705 0.41364-0.40215 0.41364-0.67792 0.67792t-0.39066 0.37917q-0.2298 0.19533-0.54003 0.39066-0.29874 0.19533-0.67792 0.40215-0.24129 0.12639-0.41364 0.19533-0.17235 0.08043-0.25278 0.08043-0.55152 0-0.8158-0.26427-0.26427-0.27576-0.26427-0.83878 0-0.31023 0.13788-0.586 0.12639-0.28725 0.39066-0.55152 0.02298-0.14937 0.02298-0.24129 0-0.05745-0.03447-0.1149-0.02298-0.06894-0.06894-0.14937-0.06894-0.16086-0.14937-0.35619-0.09192-0.20682-0.19533-0.43662 0.04596-0.04596 0.13788-0.17235 0.08043-0.13788 0.19533-0.33321z"/>
   <path d="m83.283 16.557q0.04596-0.09192 0.21831-0.31023 0.16086-0.2298 0.47109-0.56302 0.32172-0.32172 0.52854-0.59748 0.21831-0.28725 0.31023-0.50556 0.13788-0.26427 0.32172-0.66642 0.19533-0.40215 0.42513-0.9307 0.03447-0.05745 0.49407-0.36768 0.4596-0.32172 0.5745-0.32172 0.14937 0 0.21831 0.21831 0.08043 0.20682 0.08043 0.64344 0 0.64344-0.02298 1.0801-0.01149 0.42513-0.08043 0.68941 0.02298 0.05745 0.04596 0.13788 0.02298 0.08043 0.05745 0.18384-0.02298 0.1149-0.05745 0.24129 0 1.3673 0.10341 2.0452 0.10341 0.66643 0.27576 0.66643 0.21831 0 0.62046-0.5745 0.40215-0.58599 0.97666-1.758 0.5745-1.1375 0.87325-1.8614 0.29874-0.73536 0.3447-1.103 0.10341-0.64344 0.33321-0.96517 0.24129-0.33321 0.64344-0.33321 0.1149 0 0.16086 0.06894 0.04596 0.05745 0.04596 0.18384 0 0.4596-0.12639 0.94219-0.1149 0.47109-0.36768 0.94219 0 0.31023-0.14937 0.7009-0.13788 0.39066-0.43662 0.86176-0.10341 0.31023-0.16086 0.60898-0.02298 0.14937-0.52854 1.0571-0.49407 0.90772-0.63195 1.0571 0 0.27576-0.26427 0.66642-0.26427 0.37917-0.8158 0.87325-0.1149 0.14937-0.24129 0.28725t-0.24129 0.27576q-0.12639 0.16086-0.28725 0.24129-0.14937 0.09192-0.35619 0.09192-0.62046 0-0.94219-0.47109-0.32172-0.47109-0.32172-1.4133 0.03447-0.17235 0.04596-0.29874-0.05745-0.13788-0.1149-0.35619-0.05745-0.2298-0.08043-0.50556 0-0.36768-0.01149-0.59748 0-0.2298-0.03447-0.31023l0.08043-0.26427-0.1149-0.06894q-0.08043 0.03447-0.42513 0.39066t-0.97666 1.0456q-0.08043-0.25278-0.19533-0.50556t-0.26427-0.55152z"/>
   <path d="m90.855 16.557 0.06894-0.08043 0.03447-0.1149q0.31023-0.42513 1.0916-1.103 0.78133-0.6894 1.0801-1.1145 0.1149-0.18384 0.26427-0.26427 0.14937-0.08043 0.29874-0.08043 0.40215 0 0.67792 0.20682 0.27576 0.19533 0.36768 0.59748 0.08043 0.35619 0.14937 0.72388 0.06894 0.35619 0.1149 0.72388 0.08043 0.2298 0.19533 0.7009 0.1149 0.4596 0.17235 0.52854 0.05745 0.1149 0.17235 0.17235 0.1149 0.04596 0.28725 0.04596 0.20682 0 0.42513-0.06894 0.21831-0.08043 0.44811-0.26427 0.17235-0.14937 0.35619-0.29874 0.19533-0.16086 0.37917-0.31023l0.4596 1.0571q-0.18384 0.18384-0.49407 0.42513-0.29874 0.2298-0.72388 0.54003-0.47109 0.3447-0.80431 0.51705-0.33321 0.16086-0.50556 0.16086-1.0456 0-1.3558-0.24129-0.31023-0.24129-0.6894-1.3443-0.04596-0.09192-0.13788-0.21831-0.09192-0.12639-0.20682-0.29874-0.13788-0.26427-0.24129-0.39066-0.10341-0.13788-0.17235-0.13788-0.18384 0-0.49407 0.25278-0.31023 0.24129-0.75834 0.73537-0.05745-0.14937-0.13788-0.35619-0.09192-0.20682-0.18384-0.48258-0.02298-0.06894-0.05745-0.12639-0.03447-0.05745-0.08043-0.09192zm4.8029-9.0657q0.28725 0 0.41364 0.1149 0.13788 0.1149 0.13788 0.33321-0.06894 0.32172-0.1149 0.54003-0.1149 0.41364-0.20682 0.67792-0.08043 0.26427-0.12639 0.37917-0.10341 0.25278-0.28725 0.44811-0.17235 0.18384-0.42513 0.33321-0.26427 0.18384-0.44811 0.26427-0.17235 0.06894-0.24129 0.05745-0.19533-0.02298-0.37917-0.03447-0.17235-0.02298-0.3447-0.02298-0.14937-0.08043-0.24129-0.31023-0.08043-0.2298-0.08043-0.62046 0-0.3447 0.41364-0.86176 0.42513-0.52854 0.74686-0.56301 0.19533-0.24129 0.4596-0.55152 0.1149-0.080431 0.29874-0.12639 0.18384-0.05745 0.42513-0.05745z"/>
   <path d="m106.73 8.0431q-0.10341 0.13788-0.21831 0.27576-0.10342 0.12639-0.19534 0.25278-0.0919 0.10341-0.12639 0.26427-0.0345 0.14937-0.1149 0.25278-0.0919 0.12639-0.24129 0.21831-0.14937 0.080431-0.21831 0.17235-0.0689 0.091921-0.18384 0.17235-0.10341 0.068941-0.17235 0.14937l-0.2413-0.01149q-0.0115 0.068941 0.046 0.33321-0.0689 0.06894-0.0919 0.17235-0.0115 0.09192-0.0804 0.14937-0.0574 0.05745-0.17235 0.08043-0.1149 0.02298-0.16086 0.05745-0.0689 0.04596-0.16086 0.06894-0.0919 0.01149-0.16086 0.02298-0.0689 0.01149-0.13788 0.04596-0.0689 0.03447-0.13788 0.03447-0.0689 0-0.13789-0.02298-0.0575-0.02298-0.12639-0.05745-0.10341-0.05745-0.21831-0.17235-0.10341-0.12639-0.19533-0.27576-0.046-0.10341-0.1149-0.20682-0.0689-0.10341-0.13788-0.20682-0.0689-0.10341-0.16086-0.20682-0.0919-0.10341-0.17235-0.19533-0.0919-0.10341-0.19534-0.21831-0.10341-0.1149-0.20682-0.21831-0.0804-0.080431-0.18384-0.17235-0.0919-0.091921-0.18384-0.17235-0.10341-0.068941-0.18384-0.13788-0.0804-0.080431-0.1149-0.13788-0.0345-0.068941-0.0575-0.12639t-0.023-0.1149q0-0.05745 0.046-0.12639 0.046-0.080431 0.1149-0.14937 0.0804-0.080431 0.31023-0.21831 0.20682-0.03447 0.31023 0.02298 0.046 0.03447 0.0919 0.13788 0.0574 0.10341 0.12639 0.14937 0.0804 0.04596 0.17236 0.10341 0.0919 0.05745 0.18384 0.1149 0.10341 0.05745 0.20682 0.12639 0.1149 0.068941 0.21831 0.12639 0.1149 0.068941 0.17235 0.080431 0.0575 0.01149 0.17235 0.080431 0.046 0.02298 0.21832 0.068941 0.17235 0.04596 0.21831 0.080431 0.0804 0.05745 0.13788 0.080431 0.0575 0.02298 0.16086-0.03447l0.20682-0.14937q0.10341-0.068941 0.17235-0.1149 0.0689-0.057451 0.16086-0.12639 0.10341-0.091921 0.21831-0.18384 0.11491-0.10341 0.20683-0.19533 0.0919-0.080431 0.18384-0.17235 0.0919-0.10341 0.16086-0.19533 0.0919-0.10341 0.13788-0.19533 0.046-0.091921 0.1149-0.14937 0.0919-0.068941 0.3447-0.14937 0.0804 0 0.14937 0.03447 0.069 0.02298 0.11491 0.080431 0.18384 0.13788 0.26427 0.2298 0.0804 0.091921 0.0804 0.17235 0 0.068941-0.0575 0.18384-0.046 0.10341-0.13788 0.21831zm-9.307 8.5142 0.10341-0.09192q0.01149-0.12639 0.16086-0.29874 0.14937-0.17235 0.42513-0.40215 0.17235-0.12639 0.35619-0.24129 0.19533-0.1149 0.36768-0.25278 0.72388-0.62046 1.4018-1.195 0.39066-0.3447 0.78132-0.58599 0.39067-0.25278 0.73537-0.40215 0.24129-0.31023 0.89623-0.63195 0.66642-0.32172 1.0801-0.32172 0.16087 0 0.25279 0.09192 0.10341 0.09192 0.12639 0.2298v0.63195q0 0.33321-0.19533 0.59748-0.18385 0.25278-0.56302 0.47109-0.25278 0.1149-0.50556 0.25278-0.25278 0.13788-0.50557 0.25278-0.0919 0.1149-0.49407 0.43662-0.39066 0.31023-1.0686 0.83878-0.31023 0.24129-0.51705 0.43662-0.20682 0.18384-0.28726 0.29874-0.1149 0.21831-0.18384 0.48258-0.05745 0.26427-0.05745 0.60897 0 0.26427 0.08043 0.4596 0.08043 0.18384 0.2413 0.29874 0.1149 0.08043 0.31023 0.16086 0.20682 0.08043 0.50556 0.16086 0.17235-0.06894 0.44812-0.12639 0.28725-0.06894 0.63195-0.17235 0.39066-0.2298 0.79282-0.48258 0.41364-0.25278 0.81579-0.51705 0.0575-0.03447 0.13788-0.06894 0.0919-0.04596 0.18385-0.12639 0.1149-0.14937 0.31023-0.3447 0.20682-0.19533 0.49407-0.44811 0.4596 0.99964 0.4596 1.0571-0.42513 0.3447-0.86175 0.71239-0.43663 0.35619-0.99964 0.58599-0.18384 0.14937-0.31023 0.27576-0.57451 0.5745-1.3443 0.86176-0.75835 0.29874-1.735 0.29874-0.21831 0-0.39066-0.03447-0.17235-0.03447-0.28725-0.09192-0.3447-0.2298-0.58599-0.40215-0.25278-0.18384-0.42513-0.3447-0.17235-0.17235-0.25278-0.32172-0.10341-0.16086-0.13788-0.39066-0.04596-0.2298-0.04596-0.56301 0-0.09192 0.05745-0.29874 0.05745-0.20682 0.05745-0.28725-0.08043-0.25278-0.19533-0.51705t-0.26427-0.54003z"/>
   <path d="m104.69 16.557 0.0689-0.08043 0.0345-0.1149q0.31023-0.42513 1.0916-1.103 0.78132-0.6894 1.0801-1.1145 0.1149-0.18384 0.26427-0.26427t0.29874-0.08043q0.40215 0 0.67792 0.20682 0.27576 0.19533 0.36768 0.59748 0.0804 0.35619 0.14937 0.72388 0.0689 0.35619 0.1149 0.72388 0.0804 0.2298 0.19533 0.7009 0.1149 0.4596 0.17235 0.52854 0.0574 0.1149 0.17236 0.17235 0.1149 0.04596 0.28725 0.04596 0.20682 0 0.42513-0.06894 0.21831-0.08043 0.44811-0.26427 0.17236-0.14937 0.3562-0.29874 0.19533-0.16086 0.37917-0.31023l0.4596 1.0571q-0.18384 0.18384-0.49407 0.42513-0.29874 0.2298-0.72388 0.54003-0.47109 0.3447-0.8043 0.51705-0.33321 0.16086-0.50557 0.16086-1.0456 0-1.3558-0.24129-0.31023-0.24129-0.6894-1.3443-0.046-0.09192-0.13788-0.21831-0.0919-0.12639-0.20682-0.29874-0.13789-0.26427-0.2413-0.39066-0.10341-0.13788-0.17235-0.13788-0.18384 0-0.49407 0.25278-0.31023 0.24129-0.75835 0.73537-0.0574-0.14937-0.13788-0.35619-0.0919-0.20682-0.18384-0.48258-0.023-0.06894-0.0574-0.12639-0.0345-0.05745-0.0804-0.09192zm4.8029-9.0657q0.28725 0 0.41364 0.1149 0.13788 0.1149 0.13788 0.33321-0.0689 0.32172-0.1149 0.54003-0.1149 0.41364-0.20682 0.67792-0.0804 0.26427-0.12639 0.37917-0.10341 0.25278-0.28725 0.44811-0.17236 0.18384-0.42514 0.33321-0.26427 0.18384-0.44811 0.26427-0.17235 0.06894-0.24129 0.05745-0.19533-0.02298-0.37918-0.03447-0.17235-0.02298-0.3447-0.02298-0.14937-0.08043-0.24129-0.31023-0.0804-0.2298-0.0804-0.62046 0-0.3447 0.41364-0.86176 0.42513-0.52854 0.74686-0.56301 0.19533-0.24129 0.4596-0.55152 0.1149-0.080431 0.29874-0.12639 0.18384-0.05745 0.42514-0.05745z"/>
   <path d="m111.26 16.557q0.046-0.03447 0.0804-0.08043 0.023-0.04596 0.023-0.1149 0.19534-0.16086 0.43663-0.43662 0.25278-0.28725 0.56301-0.66642 0.25278-0.3447 0.51706-0.6894 0.27576-0.3447 0.58599-0.6894 0.25278-0.3447 0.49407-0.71239 0.25279-0.37917 0.52855-0.73537 0.4596-0.21831 0.71238-0.31023 0.25279-0.09192 0.34471-0.09192 0.17235 0 0.26427 0.1149 0.0919 0.10341 0.0919 0.31023 0 0.06894-0.0345 0.19533t-0.0804 0.27576q-0.0804 0.2298-0.18384 0.47109-0.0919 0.40215-0.21831 0.80431-0.1264 0.40215-0.2413 0.79282-0.1149 0.49407-0.18384 0.90772-0.0574 0.41364-0.0574 0.75835 0 0.64344 0.0574 0.95368 0.0689 0.31023 0.18384 0.27576 0.1149-0.06894 0.28726-0.16086 0.17235-0.10341 0.40215-0.2298 0.20682-0.21831 0.4596-0.54003 0.26427-0.32172 0.63196-0.75835 0.20682-0.32172 0.42513-0.63196 0.0804-0.09192 0.18384-0.21831 0.1149-0.12639 0.20682-0.25278 0.21832-0.55152 0.48259-0.8158 0.27576-0.27576 0.60897-0.27576 0.29874 0 0.4711 0.08043 0.18384 0.06894 0.25278 0.21831 0.0345 0.08043 0.0575 0.27576 0.023 0.19533 0.023 0.51705 0 0.12639 0.046 0.36768 0.0575 0.24129 0.0575 0.35619 0 0.42513 0.14937 0.64344 0.14937 0.20682 0.4596 0.20682 0.0919 0 0.21832-0.03447 0.12639-0.03447 0.25278-0.08043l0.4596 1.0571q-0.6894 0.41364-1.1375 0.63196-0.43662 0.20682-0.65493 0.20682-0.57451 0-0.94219-0.29874-0.36768-0.29874-0.54003-0.88474-0.023-0.13788-0.10342-0.27576-0.0689-0.13788-0.18384-0.27576-0.10341 0.1149-0.24129 0.27576-0.12639 0.16086-0.27576 0.32172-0.31023 0.37917-0.62047 0.74686-0.31023 0.35619-0.63195 0.71238-0.40215 0.47109-0.8158 0.6894-0.40215 0.20682-0.75834 0.20682-0.52855 0-0.85027-0.31023-0.32172-0.32172-0.41364-0.94219-0.10341-0.59748-0.13788-0.9307-0.0345-0.33321-0.0115-0.40215-0.023-0.33321-0.0689-0.50556-0.0345-0.17235-0.1149-0.17235l-0.0689 0.03447-0.65494 0.67792q-0.0345 0.08043-0.1149 0.20682-0.0804 0.1149-0.21831 0.28725-0.046-0.17235-0.16086-0.42513-0.1149-0.25278-0.29875-0.63196zm9.5483-8.1235q0.0115 0.14937-0.023 0.27576-0.023 0.12639-0.0919 0.21831-0.0345 0.05745-0.1149 0.12639-0.069 0.05745-0.13789 0.10341-0.0689 0.03447-0.17235 0.080431-0.10341 0.03447-0.24129 0.068941-0.16086 0.02298-0.37917 0.1149-0.21831 0.080431-0.48259 0.080431-0.10341 0-0.2298-0.03447t-0.25278-0.04596q-0.16086-0.01149-0.3447 0-0.18384 0-0.35619 0-0.0804 0-0.17236 0-0.0804 0-0.16086 0-0.19533 0-0.40215-0.02298t-0.40215-0.02298q-0.0804 0-0.17235 0.02298-0.0919 0.01149-0.17236 0.01149-0.1149 0-0.24129-0.02298-0.1149-0.03447-0.21831-0.03447-0.1149 0-0.24129-0.03447-0.12639-0.04596-0.24129-0.05745-0.10341 0-0.20682 0.01149-0.0919 0-0.18385 0-0.0575-0.25278-0.023-0.42513 0.023-0.10341 0.0919-0.2298 0.0689-0.12639 0.10342-0.2298 0.0689-0.20682 0.20682-0.50556 0.1149 0 0.25278-0.02298 0.14937-0.02298 0.26427-0.02298 0.14937 0 0.32172 0.04596 0.17235 0.03447 0.32173 0.03447 0.25278 0 0.50556-0.01149t0.48258-0.01149q0.25279 0 0.50557 0.04596 0.25278 0.03447 0.4596 0.04596 0.44811 0.02298 1.0111 0.04596 0.19533 0 0.37917-0.02298 0.19533-0.02298 0.37917-0.068941 0.16087-0.05745 0.25279 0.080431 0.0919 0.12639 0.12639 0.41364z"/>
   <path d="m120.82 16.557 0.046-0.09192q0.0689-0.09192 0.18384-0.2298 0.10341-0.13788 0.25278-0.32172 0.8158-0.75835 1.5856-1.8039 0.78133-1.0571 1.5397-2.4244 0.0919-0.12639 0.20682-0.33321 0.1149-0.20682 0.25278-0.51705 0-0.06894-0.0345-0.10341-0.0345-0.03447-0.1149-0.03447-0.0689 0-0.2298 0.04596-0.14938 0.03447-0.22981 0.03447h-1.4363q-0.0919 0-0.31023-0.01149-0.20682-0.01149-0.29874-0.01149-0.1149-0.05745-0.21831-0.09192-0.0919-0.04596-0.18384-0.09192-0.13789-0.04596-0.21832-0.1149-0.0689-0.08043-0.0689-0.18384 0-0.73537 0.14937-1.126 0.16087-0.39066 0.48259-0.39066t0.59748 0.03447q0.28725 0.02298 0.50557 0.068941 0.17235-0.03447 0.32172-0.068941 0.31023 0 0.52854 0.02298t0.33322 0.05745q0.14937-0.03447 0.28725-0.05745 0.14937-0.03447 0.32172-0.068941l0.37917 0.1149q0.40216-0.04596 0.85027-1.126 0.4596-1.0801 0.97666-1.0801 0.27576 0 0.42513 0.17235t0.14937 0.50556q0 0.26427-0.16086 0.7009-0.14937 0.42513-0.17235 0.64344 0.023 0.04596 0.0575 0.10341 0.046 0.04596 0.12639 0.1149 0.0689 0.04596 0.0919 0.16086 0.0345 0.10341 0.0345 0.26427 0 0.68941-0.0689 1.0686-0.0575 0.36768-0.19533 0.37917l-0.78133 0.16086q-0.023 0.1149-0.0575 0.28725-0.0345 0.16086-0.0919 0.37917-0.19533 0.5745-0.43662 1.4592t-0.54004 2.0912q-0.18384 0.96517-0.28725 1.5627-0.0919 0.59748-0.0919 0.80431 0 0.18384 0.0575 0.27576t0.17235 0.09192q0.0689 0 0.49408-0.33321 0.43662-0.33321 1.2065-0.98815l0.44811 1.0571q-0.1149 0.12639-0.32172 0.29874-0.20682 0.17235-0.49408 0.36768-0.1149 0.12639-0.28725 0.28725-0.17235 0.14937-0.37917 0.35619-0.20682 0.2298-0.41364 0.4596-0.19534 0.2298-0.40216 0.44811-0.27576 0.29874-0.54003 0.42513-0.26427 0.13788-0.49408 0.13788-0.50556 0-0.75834-0.29874-0.24129-0.29874-0.24129-0.90772 0-0.66642 0.046-1.149 0.046-0.49407 0.14937-0.79282 0.046-0.09192 0.0689-0.16086 0-0.1149 0.0345-0.31023 0.0345-0.19533 0.0804-0.4596 0.0689-0.44811 0.14937-0.89623 0.12639-0.27576 0.26427-0.58599 0-0.05745-0.0919-0.10341l-0.1149 0.06894q-0.17235 0.27576-0.44811 0.58599-0.27576 0.29874-0.65494 0.63196-0.58599 0.56301-1.195 1.1375-0.0345 0.05745-0.12639 0.17235-0.0919 0.1149-0.20682 0.28725-0.0575-0.13788-0.13788-0.3447-0.0919-0.21831-0.18384-0.49407-0.023-0.06894-0.0575-0.12639-0.0345-0.05745-0.0804-0.09192z"/>
   <path d="m127.19 16.557q0.13788-0.24129 0.35619-0.48258 0.21831-0.25278 0.55152-0.51705 0.0345-0.2298 0.0689-0.44811 0.0345-0.2298 0.046-0.4596 0.0345-0.16086 0.10342-0.37917 0.0804-0.21831 0.17235-0.47109 0.10341-0.25278 0.27576-0.63196 0.18384-0.37917 0.47109-0.85027 0.24129-0.26427 0.50557-0.5745 0.26427-0.32172 0.52854-0.64344 0.12639-0.10341 0.27576-0.19533t0.29874-0.20682q0.13789-0.04596 0.31024-0.08043t0.37917-0.03447q0.28725 0 0.4596 0.05745 0.18384 0.05745 0.29875 0.19533 0.0804 0.09192 0.14937 0.27576 0.0804 0.18384 0.14937 0.44811 0.0345 0.2298 0.0804 0.50556 0-0.06894-0.046 0.05745-0.0345 0.12639-0.1149 0.40215l-0.10341 0.36768q-0.16086 0.55152-0.72388 1.2754-0.56301 0.72388-1.5167 1.6546-0.0804 0.08043-0.13788 0.20682-0.0574 0.1149-0.0574 0.25278 0 0.24129 0.0804 0.42513 0.0919 0.18384 0.25278 0.27576 0.0919 0.06894 0.28725 0.13788 0.20682 0.06894 0.48259 0.12639 0.44811-0.03447 0.81579-0.14937 0.36769-0.1149 0.65494-0.27576 0.0574-0.03447 0.18384-0.09192 0.12639-0.06894 0.25278-0.17235 0.14937 0.33321 0.26427 0.59748t0.18384 0.4596q-0.65493 0.64344-1.195 0.97666-0.52855 0.32172-0.97666 0.32172-0.18384 0.1149-0.42514 0.17235-0.2298 0.04596-0.55152 0.04596-0.42513 0-0.75835-0.12639-0.32172-0.12639-0.54003-0.36768-0.1149-0.1149-0.2298-0.33321-0.1149-0.2298-0.24129-0.54003-0.10341-0.25278-0.19533-0.36768-0.0919-0.12639-0.20683-0.12639-0.0919 0-0.20682 0.09192-0.1149 0.08043-0.25278 0.25278-0.046-0.17235-0.16086-0.42513-0.1149-0.25278-0.29874-0.63196zm3.6768-3.7343q-0.25278 0-0.67791 0.66643-0.42513 0.65494-0.42513 0.96517 0 0.06894 0.023 0.10341 0.0345 0.02298 0.12639 0.02298 0.12639 0 0.20682-0.12639 0.0804-0.13788 0.14937-0.25278 0.12639-0.1149 0.24129-0.24129 0.12639-0.13788 0.24129-0.26427 0.13788-0.16086 0.20683-0.32172 0.0689-0.16086 0.0689-0.32172 0-0.10341-0.046-0.16086-0.0345-0.06894-0.11491-0.06894zm2.7117-4.9407q0 0.10341-0.0115 0.21831-0.0115 0.1149-0.0345 0.21831-0.023 0.14937-0.0919 0.29874-0.0574 0.13788-0.12639 0.27576-0.0345 0.068941-0.0919 0.16086-0.0574 0.080431-0.10341 0.14937-0.0689 0.10341-0.16086 0.19533-0.0919 0.080431-0.18384 0.14937-0.1149 0.080431-0.26427 0.14937-0.13788 0.068941-0.28726 0.10341-0.10341 0.02298-0.21831 0.04596-0.10341 0.01149-0.20682 0.01149-0.0804 0-0.18384 0.03447-0.10341 0.03447-0.16086 0.01149-0.0689-0.02298-0.17235-0.21831-0.0345-0.18384-0.046-0.25278-0.0919-0.16086-0.0919-0.21831 0-0.06894-0.0345-0.17235-0.023-0.10341 0-0.18384 0.023-0.068941 0.0919-0.12639 0.0804-0.068941 0.1149-0.13788 0.023-0.05745 0.0919-0.1149 0.0804-0.05745 0.1149-0.1149 0.0689-0.10341 0.1149-0.21831 0.0574-0.1149 0.13788-0.19533 0.046-0.04596 0.0689-0.1149 0.023-0.080431 0.0689-0.1149 0.0574-0.04596 0.14937-0.068941 0.10341-0.03447 0.14937-0.068941 0.0919-0.05745 0.18385-0.04596 0.0919 0 0.17235-0.03447 0.0689-0.01149 0.26427-0.16086 0.0919 0 0.17235 0.01149 0.0804 0.01149 0.14937 0.02298 0.10341 0.02298 0.18384 0.080431 0.0919 0.04596 0.14937 0.1149 0.0345 0.068941 0.0575 0.14937 0.0345 0.080431 0.0345 0.16086z"/>
  </g>
 </g>
</svg>
